Broken City 2013 READNFO XViD AC3-OFFLiNE

iMDB  http://www.imdb.com/title/tt1235522/

Source  INFERNO -  Many Thankx Fellas

Notes  READNFO because im not sure wht source really was so im not taggin it anything, it is what it is, resized, put my stank on it, enjoy

Media Info
Broken City 2013 READNFO XViD AC3-OFFLiNE.avi
Format                                   : AVI
Format/Info                              : Audio Video Interleave
File size                                : 556 MiB
Duration                                 : 1h 39mn
Overall bit rate                         : 783 Kbps

Video
ID                                       : 0
Format                                   : MPEG-4 Visual
Format profile                           : Advanced Simple@L5
Format settings, BVOP                    : 4
Format settings, QPel                    : No
Format settings, GMC                     : No warppoints
Format settings, Matrix                  : Default (H.263)
Codec ID                                 : XVID
Codec ID/Hint                            : XviD
Duration                                 : 1h 39mn
Bit rate                                 : 647 Kbps
Width                                    : 720 pixels
Height                                   : 304 pixels
Display aspect ratio                     : 2.35:1
Frame rate                               : 29.970 fps
Color space                              : YUV
Chroma subsampling                       : 4:2:0
Bit depth                                : 8 bits
Scan type                                : Progressive
Compression mode                         : Lossy
Bits/(Pixel*Frame)                       : 0.099
Stream size                              : 459 MiB (83%)
Writing library                          : XviD 1.2.1 (UTC 2008-12-04)

Audio
ID                                       : 1
Format                                   : AC-3
Format/Info                              : Audio Coding 3
Mode extension                           : CM (complete main)
Format settings, Endianness              : Big
Codec ID                                 : 2000
Duration                                 : 1h 39mn
Bit rate mode                            : Constant
Bit rate                                 : 128 Kbps
Channel(s)                               : 2 channels
Channel positions                        : Front: L R
Sampling rate                            : 44.1 KHz
Bit depth                                : 16 bits
Compression mode                         : Lossy
Stream size                              : 90.8 MiB (16%)
Alignment                                : Aligned on interleaves
Interleave, duration                     : 70 ms (2.09 video frames)
Interleave, preload duration             : 209 ms
Title                                    : 2.0

Screens: 
http://i.imgur.com/KE834d0.png 
http://i.imgur.com/4WQxA9L.png 
http://i.imgur.com/pu4QNvw.png 
http://i.imgur.com/SrZHR8D.png
